/* XPM */
static char *fc8c5ac71af64652cd20a84917659d27_0[] = {
/* columns rows colors chars-per-pixel */
"75 72 64 1 ",
"  c gray66",
". c #7C7C7C",
"X c black",
"o c gray33",
"O c #989898",
"+ c gray44",
"@ c #646464",
"# c #484848",
"$ c #2C2C2C",
"% c #202020",
"& c #FCD8C4",
"* c #FCC4A4",
"= c #FCB890",
"- c #FCB080",
"; c #FCA470",
": c #FC9C60",
"> c #F0945C",
", c #E88C58",
"< c #DC8854",
"1 c #C87C4C",
"2 c #B47044",
"3 c #80502C",
"4 c #A86840",
"5 c #744C28",
"6 c #543C1C",
"7 c gray55",
"8 c None",
"9 c #A0643C",
"0 c #FC5454",
"q c #FCFC54",
"w c #D0D0D0",
"e c #EC0000",
"r c #980000",
"t c #FC9C9C",
"y c #FC5C5C",
"u c #FC0000",
"i c gray22",
"p c #FCBC9C",
"a c #D08050",
"s c #BC7848",
"d c #905C34",
"f c black",
"g c black",
"h c black",
"j c black",
"k c black",
"l c black",
"z c black",
"x c black",
"c c black",
"v c black",
"b c black",
"n c black",
"m c black",
"M c black",
"N c black",
"B c black",
"V c black",
"C c black",
"Z c black",
"A c black",
"S c black",
"D c black",
"F c black",
/* pixels */
"888888888888888888888888888888888XXX888888888888888888888888888888888888888",
"888888888888888888888888888888888XXX888888888888888888888888888888888888888",
"888888888888888888888888888888888XXX888888888888888888888888888888888888888",
"888888888888888888888888888888ooo+++ooo888888888888888888888888888888888888",
"888888888888888888888888888888ooo+++ooo888888888888888888888888888888888888",
"888888888888888888888888888888ooo+++ooo888888888888888888888888888888888888",
"888888888888888888888888888###...   ...###888888888888888888888888888888888",
"888888888888888888888888888###...   ...###888888888888888888888888888888888",
"888888888888888888888888888###...   ...###888888888888888888888888888888888",
"888888888888888888888888888###...   ...###888888888888888888888888888888888",
"888888888888888888888888888###...   ...###888888888888888888888888888888888",
"888888888888888888888888888###...   ...###888888888888888888888888888888888",
"888888888888888888888888......###...###......888888888888888888888888888888",
"888888888888888888888888......###...###......888888888888888888888888888888",
"888888888888888888888888......###...###......888888888888888888888888888888",
"888888888888888888888$$$...OOO$$$$$$$$$@@@...ooo888888888888888888888888888",
"888888888888888888888$$$...OOO$$$$$$$$$@@@...ooo888888888888888888888888888",
"888888888888888888888$$$...OOO$$$$$$$$$@@@...ooo888888888888888888888888888",
"888888888888888888888$$$...   +++...+++@@@...###888888888888888888888888888",
"888888888888888888888$$$...   +++...+++@@@...###888888888888888888888888888",
"888888888888888888888$$$...   +++...+++@@@...###888888888888888888888888888",
"888888888888888888888$$$...   OOOOOOOOO@@@...$$$888888888888888888888888888",
"888888888888888888888$$$...   OOOOOOOOO@@@...$$$888888888888888888888888888",
"888888888888888888888$$$...   OOOOOOOOO@@@...$$$888888888888888888888888888",
"888888888888888888888$$$###OOO         ######XXX888888888888888888888888888",
"888888888888888888888$$$###OOO         ######XXX888888888888888888888888888",
"888888888888888888888$$$###OOO         ######XXX888888888888888888888888888",
"888888888888888888888$$$%%%...#########XXX%%%XXX444888888888888888888888888",
"888888888888888888888$$$%%%...#########XXX%%%XXX444888888888888888888888888",
"888888888888888888888$$$%%%...#########XXX%%%XXX444888888888888888888888888",
"888888888888888888>>>$$$%%%@@@$$$$$$$$$XXX%%%XXX444222888888888888888888888",
"888888888888888888>>>$$$%%%@@@$$$$$$$$$XXX%%%XXX444222888888888888888888888",
"888888888888888888>>>$$$%%%@@@$$$$$$$$$XXX%%%XXX444222888888888888888888888",
"888888888888888>>>------%%%@@@$$$$$$$$$XXX%%%666444222888888888888888888888",
"888888888888888>>>------%%%@@@$$$$$$$$$XXX%%%666444222888888888888888888888",
"888888888888888>>>------%%%@@@$$$$$$$$$XXX%%%666444222888888888888888888888",
"888888888888888;;;***&&&111XXXXXXXXXXXX%%%%%%555222222222888888888888888888",
"888888888888888;;;***&&&111XXXXXXXXXXXX%%%%%%555222222222888888888888888888",
"888888888888888;;;***&&&111XXXXXXXXXXXX%%%%%%555222222222888888888888888888",
"888888888888888;;;---&&&&&&111333333333222,,,,,,<<<111222888888888888888888",
"888888888888888;;;---&&&&&&111333333333222,,,,,,<<<111222888888888888888888",
"888888888888888;;;---&&&&&&111333333333222,,,,,,<<<111222888888888888888888",
"888888888888;;;------&&&&&&&&&&&&***===---;;;,,,,,,<<<222888888888888888888",
"888888888888;;;------&&&&&&&&&&&&***===---;;;,,,,,,<<<222888888888888888888",
"888888888888;;;------&&&&&&&&&&&&***===---;;;,,,,,,<<<222888888888888888888",
"888888888888;;;---,,,---&&&&&&&&&***===---;;;:::,,,<<<111888888888888888888",
"888888888888;;;---,,,---&&&&&&&&&***===---;;;:::,,,<<<111888888888888888888",
"888888888888;;;---,,,---&&&&&&&&&***===---;;;:::,,,<<<111888888888888888888",
"888888888888;;;---;;;,,,---------------;;;::::::,,,<<<111888888888888888888",
"888888888888;;;---;;;,,,---------------;;;::::::,,,<<<111888888888888888888",
"888888888888;;;---;;;,,,---------------;;;::::::,,,<<<111888888888888888888",
"888888888888>>>------::::::---------;;;;;;::::::,,,<<<111888888888888888888",
"888888888888>>>------::::::---------;;;;;;::::::,,,<<<111888888888888888888",
"888888888888>>>------::::::---------;;;;;;::::::,,,<<<111888888888888888888",
"888888888888OOOOOOOOO,,,,,,111>>>>>>>>>>>>>>>OOOOOOOOO......888888888888888",
"888888888888OOOOOOOOO,,,,,,111>>>>>>>>>>>>>>>OOOOOOOOO......888888888888888",
"888888888888OOOOOOOOO,,,,,,111>>>>>>>>>>>>>>>OOOOOOOOO......888888888888888",
"888888888OOO      OOO777+++@@@444444444@@@OOO      OOOOOO...@@@888888888888",
"888888888OOO      OOO777+++@@@444444444@@@OOO      OOOOOO...@@@888888888888",
"888888888OOO      OOO777+++@@@444444444@@@OOO      OOOOOO...@@@888888888888",
"888888OOO      OOOOOO...+++@@@ooo###@@@...777      OOOOOOOOO...@@@888888888",
"888888OOO      OOOOOO...+++@@@ooo###@@@...777      OOOOOOOOO...@@@888888888",
"888888OOO      OOOOOO...+++@@@ooo###@@@...777      OOOOOOOOO...@@@888888888",
"888OOO      OOOOOO......+++@@@oooooo@@@...777OOO777777777OOOOOO@@@ooo888888",
"888OOO      OOOOOO......+++@@@oooooo@@@...777OOO777777777OOOOOO@@@ooo888888",
"888OOO      OOOOOO......+++@@@oooooo@@@...777OOO777777777OOOOOO@@@ooo888888",
"888......OOOOOO...+++@@@@@@@@@oooooo@@@...@@@...OOO      OOOOOO...@@@###888",
"888......OOOOOO...+++@@@@@@@@@oooooo@@@...@@@...OOO      OOOOOO...@@@###888",
"888......OOOOOO...+++@@@@@@@@@oooooo@@@...@@@...OOO      OOOOOO...@@@###888",
"...OOO      OOOOOO......+++@@@oooooo@@@@@@@@@OOOOOOOOO      OOO...@@@######",
"...OOO      OOOOOO......+++@@@oooooo@@@@@@@@@OOOOOOOOO      OOO...@@@######",
"...OOO      OOOOOO......+++@@@oooooo@@@@@@@@@OOOOOOOOO      OOO...@@@######"
};
