/* XPM */
static char *fc8c5ac71af64652cd20a84917659d27_2[] = {
/* columns rows colors chars-per-pixel */
"75 90 64 1 ",
"  c gray66",
". c #7C7C7C",
"X c black",
"o c gray33",
"O c #989898",
"+ c gray44",
"@ c #646464",
"# c #484848",
"$ c #2C2C2C",
"% c #202020",
"& c #FCD8C4",
"* c #FCC4A4",
"= c #FCB890",
"- c #FCB080",
"; c #FCA470",
": c #FC9C60",
"> c #F0945C",
", c #E88C58",
"< c #DC8854",
"1 c #C87C4C",
"2 c #B47044",
"3 c #80502C",
"4 c None",
"5 c #744C28",
"6 c #543C1C",
"7 c gray55",
"8 c #B4B4B4",
"9 c #A0643C",
"0 c #FC5454",
"q c #FCFC54",
"w c #D0D0D0",
"e c #EC0000",
"r c #980000",
"t c #FC9C9C",
"y c #FC5C5C",
"u c #FC0000",
"i c gray22",
"p c #FCBC9C",
"a c #D08050",
"s c #BC7848",
"d c #905C34",
"f c black",
"g c black",
"h c black",
"j c black",
"k c black",
"l c black",
"z c black",
"x c black",
"c c black",
"v c black",
"b c black",
"n c black",
"m c black",
"M c black",
"N c black",
"B c black",
"V c black",
"C c black",
"Z c black",
"A c black",
"S c black",
"D c black",
"F c black",
/* pixels */
"444444444444444444444444444444444444iii444444444444444444444444444444444444",
"444444444444444444444444444444444444iii444444444444444444444444444444444444",
"444444444444444444444444444444444444iii444444444444444444444444444444444444",
"444444444444444444444444444444444ooo+++ooo444444444444444444444444444444444",
"444444444444444444444444444444444ooo+++ooo444444444444444444444444444444444",
"444444444444444444444444444444444ooo+++ooo444444444444444444444444444444444",
"444444444444444444444444444444###...   ...###444444444444444444444444444444",
"444444444444444444444444444444###...   ...###444444444444444444444444444444",
"444444444444444444444444444444###...   ...###444444444444444444444444444444",
"444444444444444444444444444444###...   ...###444444444444444444444444444444",
"444444444444444444444444444444###...   ...###444444444444444444444444444444",
"444444444444444444444444444444###...   ...###444444444444444444444444444444",
"444444444444444444444444444444###...   ...###444444444444444444444444444444",
"444444444444444444444444444444###...   ...###444444444444444444444444444444",
"444444444444444444444444444444###...   ...###444444444444444444444444444444",
"444444444444444444444444444444###...   ...###444444444444444444444444444444",
"444444444444444444444444444444###...   ...###444444444444444444444444444444",
"444444444444444444444444444444###...   ...###444444444444444444444444444444",
"444444444444444444444444444......@@@777@@@......444444444444444444444444444",
"444444444444444444444444444......@@@777@@@......444444444444444444444444444",
"444444444444444444444444444......@@@777@@@......444444444444444444444444444",
"444444444444444444444444@@@......@@@777@@@......@@@444444444444444444444444",
"444444444444444444444444@@@......@@@777@@@......@@@444444444444444444444444",
"444444444444444444444444@@@......@@@777@@@......@@@444444444444444444444444",
"444444444444444444444444ooo...   iii###iii@@@...ooo444444444444444444444444",
"444444444444444444444444ooo...   iii###iii@@@...ooo444444444444444444444444",
"444444444444444444444444ooo...   iii###iii@@@...ooo444444444444444444444444",
"444444444444444444444444oooOOOOOO$$$$$$$$$@@@...###444444444444444444444444",
"444444444444444444444444oooOOOOOO$$$$$$$$$@@@...###444444444444444444444444",
"444444444444444444444444oooOOOOOO$$$$$$$$$@@@...###444444444444444444444444",
"444444444444444444444444ooo   888+++...+++@@@...iii444444444444444444444444",
"444444444444444444444444ooo   888+++...+++@@@...iii444444444444444444444444",
"444444444444444444444444ooo   888+++...+++@@@...iii444444444444444444444444",
"444444444444444444444444ooo   888888888888@@@###$$$222444444444444444444444",
"444444444444444444444444ooo   888888888888@@@###$$$222444444444444444444444",
"444444444444444444444444ooo   888888888888@@@###$$$222444444444444444444444",
"444444444444444444444;;;ooo777888777777777######XXX222222444444444444444444",
"444444444444444444444;;;ooo777888777777777######XXX222222444444444444444444",
"444444444444444444444;;;ooo777888777777777######XXX222222444444444444444444",
"444444444444444444;;;pppoooooo...#########$$$%%%XXX222222444444444444444444",
"444444444444444444;;;pppoooooo...#########$$$%%%XXX222222444444444444444444",
"444444444444444444;;;pppoooooo...#########$$$%%%XXX222222444444444444444444",
"444444444444444444;;;ppp@@@ooo@@@$$$$$$$$$XXX%%%XXXsss222222444444444444444",
"444444444444444444;;;ppp@@@ooo@@@$$$$$$$$$XXX%%%XXXsss222222444444444444444",
"444444444444444444;;;ppp@@@ooo@@@$$$$$$$$$XXX%%%XXXsss222222444444444444444",
"444444444444444444;;;ppp...ooo@@@$$$$$$$$$XXXXXXooo111sss222444444444444444",
"444444444444444444;;;ppp...ooo@@@$$$$$$$$$XXXXXXooo111sss222444444444444444",
"444444444444444444;;;ppp...ooo@@@$$$$$$$$$XXXXXXooo111sss222444444444444444",
"444444444444444;;;;;;------...oooXXXXXXXXX%%%ooo222111sss222444444444444444",
"444444444444444;;;;;;------...oooXXXXXXXXX%%%ooo222111sss222444444444444444",
"444444444444444;;;;;;------...oooXXXXXXXXX%%%ooo222111sss222444444444444444",
"444444444444444;;;;;;---&&&===111333333333222,,,,,,<<<111222444444444444444",
"444444444444444;;;;;;---&&&===111333333333222,,,,,,<<<111222444444444444444",
"444444444444444;;;;;;---&&&===111333333333222,,,,,,<<<111222444444444444444",
"444444444444444;;;------&&&************===---;;;,,,,,,<<<222444444444444444",
"444444444444444;;;------&&&************===---;;;,,,,,,<<<222444444444444444",
"444444444444444;;;------&&&************===---;;;,,,,,,<<<222444444444444444",
"444444444444444;;;---,,,---************===---;;;:::,,,<<<111444444444444444",
"444444444444444;;;---,,,---************===---;;;:::,,,<<<111444444444444444",
"444444444444444;;;---,,,---************===---;;;:::,,,<<<111444444444444444",
"444444444444444;;;---;;;,,,;;;;;;;;;;;;;;;;;;::::::,,,<<<111444444444444444",
"444444444444444;;;---;;;,,,;;;;;;;;;;;;;;;;;;::::::,,,<<<111444444444444444",
"444444444444444;;;---;;;,,,;;;;;;;;;;;;;;;;;;::::::,,,<<<111444444444444444",
"444444444444444>>>------,,,,,,::::::::::::::::::,,,,,,aaa111444444444444444",
"444444444444444>>>------,,,,,,::::::::::::::::::,,,,,,aaa111444444444444444",
"444444444444444>>>------,,,,,,::::::::::::::::::,,,,,,aaa111444444444444444",
"444444444444444<<<---------<<<aaaaaaaaaaaaaaaaaaaaaaaaaaa111444444444444444",
"444444444444444<<<---------<<<aaaaaaaaaaaaaaaaaaaaaaaaaaa111444444444444444",
"444444444444444<<<---------<<<aaaaaaaaaaaaaaaaaaaaaaaaaaa111444444444444444",
"444444444444OOOOOOOOOOOO...sssssssssssssss..................@@@444444444444",
"444444444444OOOOOOOOOOOO...sssssssssssssss..................@@@444444444444",
"444444444444OOOOOOOOOOOO...sssssssssssssss..................@@@444444444444",
"444444444OOO         OOO...++++++111sssooo...OOOOOOOOO.........@@@444444444",
"444444444OOO         OOO...++++++111sssooo...OOOOOOOOO.........@@@444444444",
"444444444OOO         OOO...++++++111sssooo...OOOOOOOOO.........@@@444444444",
"444444444OOO         OOO......+++oooooo......OOOOOO............@@@444444444",
"444444444OOO         OOO......+++oooooo......OOOOOO............@@@444444444",
"444444444OOO         OOO......+++oooooo......OOOOOO............@@@444444444",
"444444OOOOOO   OOO777+++......@@@oooooo.........+++++++++@@@@@@@@@@@@444444",
"444444OOOOOO   OOO777+++......@@@oooooo.........+++++++++@@@@@@@@@@@@444444",
"444444OOOOOO   OOO777+++......@@@oooooo.........+++++++++@@@@@@@@@@@@444444",
"444OOO            OOOOOO+++@@@@@@@@@###ooo...+++...777.........@@@@@@@@@444",
"444OOO            OOOOOO+++@@@@@@@@@###ooo...+++...777.........@@@@@@@@@444",
"444OOO            OOOOOO+++@@@@@@@@@###ooo...+++...777.........@@@@@@@@@444",
"444            OOOOOO.........@@@ooo###ooo+++...777777777.........@@@@@@444",
"444            OOOOOO.........@@@ooo###ooo+++...777777777.........@@@@@@444",
"444            OOOOOO.........@@@ooo###ooo+++...777777777.........@@@@@@444",
"OOO         OOOOOO.........@@@@@@ooo###ooo+++...777777777............@@@@@@",
"OOO         OOOOOO.........@@@@@@ooo###ooo+++...777777777............@@@@@@",
"OOO         OOOOOO.........@@@@@@ooo###ooo+++...777777777............@@@@@@"
};
