/* XPM */
static char *fc8c5ac71af64652cd20a84917659d27_4[] = {
/* columns rows colors chars-per-pixel */
"45 54 64 1 ",
"  c gray66",
". c #7C7C7C",
"X c black",
"o c gray33",
"O c #989898",
"+ c gray44",
"@ c #646464",
"# c #484848",
"$ c #2C2C2C",
"% c #202020",
"& c #FCD8C4",
"* c #FCC4A4",
"= c #FCB890",
"- c #FCB080",
"; c #FCA470",
": c #FC9C60",
"> c #F0945C",
", c #E88C58",
"< c #DC8854",
"1 c #C87C4C",
"2 c #B47044",
"3 c #80502C",
"4 c #A86840",
"5 c #744C28",
"6 c #543C1C",
"7 c None",
"8 c #B4B4B4",
"9 c #A0643C",
"0 c #FC5454",
"q c #FCFC54",
"w c #D0D0D0",
"e c #EC0000",
"r c #980000",
"t c #FC9C9C",
"y c #FC5C5C",
"u c #FC0000",
"i c gray22",
"p c #FCBC9C",
"a c #D08050",
"s c #BC7848",
"d c #905C34",
"f c black",
"g c black",
"h c black",
"j c black",
"k c black",
"l c black",
"z c black",
"x c black",
"c c black",
"v c black",
"b c black",
"n c black",
"m c black",
"M c black",
"N c black",
"B c black",
"V c black",
"C c black",
"Z c black",
"A c black",
"S c black",
"D c black",
"F c black",
/* pixels */
"777777777777777777777XXX777777777777777777777",
"777777777777777777777XXX777777777777777777777",
"777777777777777777777XXX777777777777777777777",
"777777777777777777ooo+++ooo777777777777777777",
"777777777777777777ooo+++ooo777777777777777777",
"777777777777777777ooo+++ooo777777777777777777",
"777777777777777###...   ...###777777777777777",
"777777777777777###...   ...###777777777777777",
"777777777777777###...   ...###777777777777777",
"777777777777777###...   ...###777777777777777",
"777777777777777###...   ...###777777777777777",
"777777777777777###...   ...###777777777777777",
"777777777777......###...###......777777777777",
"777777777777......###...###......777777777777",
"777777777777......###...###......777777777777",
"777777777$$$...OOO$$$$$$$$$@@@...ooo777777777",
"777777777$$$...OOO$$$$$$$$$@@@...ooo777777777",
"777777777$$$...OOO$$$$$$$$$@@@...ooo777777777",
"777777777$$$...   +++...+++@@@...###777777777",
"777777777$$$...   +++...+++@@@...###777777777",
"777777777$$$...   +++...+++@@@...###777777777",
"777777777$$$...   OOOOOOOOO@@@...$$$777777777",
"777777777$$$...   OOOOOOOOO@@@...$$$777777777",
"777777777$$$...   OOOOOOOOO@@@...$$$777777777",
"777777777$$$###OOO         ######XXX777777777",
"777777777$$$###OOO         ######XXX777777777",
"777777777$$$###OOO         ######XXX777777777",
"777777777$$$%%%...#########XXX%%%XXX444777777",
"777777777$$$%%%...#########XXX%%%XXX444777777",
"777777777$$$%%%...#########XXX%%%XXX444777777",
"777777>>>$$$%%%@@@$$$$$$$$$XXX%%%XXX444222777",
"777777>>>$$$%%%@@@$$$$$$$$$XXX%%%XXX444222777",
"777777>>>$$$%%%@@@$$$$$$$$$XXX%%%XXX444222777",
"777>>>------%%%@@@$$$$$$$$$XXX%%%666444222777",
"777>>>------%%%@@@$$$$$$$$$XXX%%%666444222777",
"777>>>------%%%@@@$$$$$$$$$XXX%%%666444222777",
"777;;;***&&&111XXXXXXXXXXXX%%%%%%555222222222",
"777;;;***&&&111XXXXXXXXXXXX%%%%%%555222222222",
"777;;;***&&&111XXXXXXXXXXXX%%%%%%555222222222",
"777;;;---&&&&&&111333333333222,,,,,,<<<111222",
"777;;;---&&&&&&111333333333222,,,,,,<<<111222",
"777;;;---&&&&&&111333333333222,,,,,,<<<111222",
";;;------&&&&&&&&&&&&***===---;;;,,,,,,<<<222",
";;;------&&&&&&&&&&&&***===---;;;,,,,,,<<<222",
";;;------&&&&&&&&&&&&***===---;;;,,,,,,<<<222",
";;;---,,,---&&&&&&&&&***===---;;;:::,,,<<<111",
";;;---,,,---&&&&&&&&&***===---;;;:::,,,<<<111",
";;;---,,,---&&&&&&&&&***===---;;;:::,,,<<<111",
";;;---;;;,,,---------------;;;::::::,,,<<<111",
";;;---;;;,,,---------------;;;::::::,,,<<<111",
";;;---;;;,,,---------------;;;::::::,,,<<<111",
";;;------::::::---------;;;;;;::::::,,,<<<111",
";;;------::::::---------;;;;;;::::::,,,<<<111",
";;;------::::::---------;;;;;;::::::,,,<<<111"
};
