/* XPM */
static char *b9b6ffa08491415d87b85316938ba663[] = {
/* columns rows colors chars-per-pixel */
"128 128 76 1 ",
"  c None",
". c #394D5C",
"X c #A75072",
"o c #AE5174",
"O c #A25D7C",
"+ c #B25075",
"@ c #BD5077",
"# c #9C617E",
"$ c #DE5E76",
"% c #D7547E",
"& c #DB517D",
"* c #DB527C",
"= c #DB537C",
"- c #DB527D",
"; c #DA537D",
": c #DB537D",
"> c #D9537E",
", c #DB527E",
"< c #DC527D",
"1 c #DC517E",
"2 c #D9547E",
"3 c #DF6075",
"4 c #E5736A",
"5 c #E5726B",
"6 c #E5746A",
"7 c #FDBC3F",
"8 c #FCBD3F",
"9 c #FDBD3F",
"0 c #FEBD3F",
"q c #FDBE3F",
"w c #FCBC40",
"e c #FCBD40",
"r c #FDBD40",
"t c #FDBC41",
"y c #FDBD41",
"u c #FEBC40",
"i c #FEBD40",
"p c #FDBE40",
"a c #8F6B84",
"s c #897F94",
"d c #987891",
"f c #BC6486",
"g c #B26989",
"h c #C85D83",
"j c #D05880",
"k c #36AFAD",
"l c #36AFAE",
"z c #3FB3B1",
"x c #638C99",
"c c #6F8F9D",
"v c #778B9B",
"b c #758C9B",
"n c #66949F",
"m c #5D99A1",
"M c #5F98A1",
"N c #4DA2A7",
"B c #44A6A9",
"V c #40AAAA",
"C c #43B4B2",
"Z c #52BAB9",
"A c #59BDBB",
"S c #5CBEBC",
"D c #6DB3B7",
"F c #78B8BC",
"G c #68C3C2",
"H c #858794",
"J c #948B9E",
"K c #978EA1",
"L c #BDB7C3",
"P c #85CECD",
"I c #88D0CE",
"U c #8ED2D1",
"Y c #CDEBEB",
"T c #EBF5F5",
"R c #F9FDFD",
"E c white",
/* pixels */
"                                                                                                                                ",
"                                                                                                                                ",
"                                                                                                                                ",
"                                                               --                                                               ",
"                                                          ------------                                                          ",
"                                                       ------------------                                                       ",
"                                                     ----------------------                                                     ",
"                                                    ------------------------                                                    ",
"                                                  j1--------------------------                                                  ",
"                                                 -11---------------------------                                                 ",
"                                                <<<<----------------------------                                                ",
"                                               -<<<<----------------------------1                                               ",
"                                              BNNNNNNNNNNNNNNNNNNNNNNNNNDTTTTFNNNB                                              ",
"                                              kkkkkkkkkkkkkkkkkkkkkkkkkkSEEEEGkkkk                                              ",
"                                             lkkkkkkkkkkkkkkkkkkkkkkkkkkSEEEEGkkkkl                                             ",
"                                             kkkkkkkkkkkkkkkkkkkkkkkkkkkSEEEEGkklll                                             ",
"                                            lkkkkkkkkkkkkkkkkkkkUUUUAkkkSEEEEGkkkkkk                                            ",
"                                            kkkkkkkkkkkkkkkkkkkkEEEEIkkkSEEEEGkkkkkk                                            ",
"                                           kkkkkkkCGGGGzkkkkkkkkEEEEIkkkZYYYYSkkkkkkk                                           ",
"                                           kkkkkkkGEEEESkkkkkkkkEEEEIkkkkkkkkkkkkkkkk                                           ",
"                                          kkkkkkkkGEEEESkkkkkkkkRRRRPkkkkkkkkkkkkkkkkk                                          ",
"                                          kkkkkkkkGEEEESkkkkkkkkkkkkkkkkkkkkkkkkkkkkkk                                          ",
"                                         kkkkkkkkkGEEEESkkkkkkkkkkkkkkkkkkkkkkkkkkkkkkl                                         ",
"                                         kkkkkkkkkGEEEESkkkkkkkkkkkkkkkkkkkkkkkkkkkkkkk                                         ",
"                                        kkkkkkkkkkGEEEESkkkkkkkkkkkkkkkkkkkkkkkkkkkkkkkl                                        ",
"                                       hssssssssssKLLLLJsHssssssssssssssssssssssssssssssh                                       ",
"                                    ------------------------&<<-----------------------------                                    ",
"                                 ---------------------------&&------------------------------11j                                 ",
"                              ------------------------------------------------------------------1j                              ",
"                           ---------------------------------------------------------------------1---<                           ",
"                        ------------------------------------------------------------------------1<----<<                        ",
"                     j--------------------------------------------------------------------------<<----<<<<<                     ",
"                  ;-----------------------------------------------------------------------------<<------------                  ",
"               ;--------------------------------------------------------------------------------<<--------------;               ",
"            ;-----------------------------------------------------------------------------------<------------------;            ",
"         -<----------------------------------------------------------------------------------------------------------<;         ",
"      --------------------------------------------------------------------------------------------------------------------      ",
"   &<----------------------------------------------------------------------------------------------------------------------<<   ",
" +%+@@@@@@@@@@@@@@@@@@@@@@@@@@@@@@@@@@@@@@@@@@@@@@@@@@@@@@@@@@@@@@@@@@@@@@@@@@@@@@@@@@@@@@@@@@@@@@@@@@@@@@@@@@@@@@@@@@@@@@@@@@o ",
"................................................................................................................................",
"................................................................................................................................",
"................................................................................................................................",
"................................................................................................................................",
"................................................................................................................................",
"................................................................................................................................",
"................................................................................................................................",
"................................................................................................................................",
"                               X+++++++++++++++++++++++++++axxxx++++++++Oxxxx#++++++++++++++++++X                               ",
"                                ---------------------------dkkkk--------fkkkkg------------------                                ",
"                                 --------------------------dkkkk--------fkkkkg-----------------                                 ",
"                                 ;-------------------------dkkkk--------fkkkkg----------------;                                 ",
"                                  ;<-----------------------dkkkk--------fkkkkg--------------<;                                  ",
"                                   ------------------------dkkkk--------fkkkkg---------------                                   ",
"                                    ---------------<-------dkkkk--------fkkkkg--------------                                    ",
"                                     ---------bVVVn<--------%h%h--------<%%hh;-------------                                     ",
"                                      --------ckkkm--------&&&------------<<<-------------                                      ",
"                                      --------ckkkM---------------------------------------                                      ",
"                                       <------ckkkM-------------------------------------<                                       ",
"                                        ------ckkkM-------------------------------------                                        ",
"                                         -----ckkkM----<-------<-------<---------------                                         ",
"                                          5566Hmmmv-;333$3333333$333$333333<;;;:-$6565                                          ",
"                                          tp99       9tp99tpp9tp9pppp99ppp9       pppp                                          ",
"                                          pppp       pp9pt99tt99tpt9pt9tppp       tppp                                          ",
"                                          pppp       pptpppt9ppt99tp9tpp9tp       9tpt                                          ",
"                                          p9pt       9tptpp9p99tppt9t9ppt99       pt9p                                          ",
"                                          tttpp       9999ttttppt9tpp9t9tp       ppp9t                                          ",
"                                          9p9pp       ptpt9p9pt99t9ppt9t99       99tp9                                          ",
"                                          7p9t9       9tp9tp9tp9pp9t9tpppt       7ppt9                                          ",
"                                          9pt9p       pptt9p9pttt9pt9pt9pp       pp9p9                                          ",
"                                           pp9t       9p9p9ttp9ptp9t9tp9p9       pptp                                           ",
"                                           pptp        pp9ptt9p999ppppttt        pppp                                           ",
"                                           p9tpp       9ttp9p9ttptt9t99pp       p9tp9                                           ",
"                                           ppp99       ppt99pt9p9ttptpp9p       t9ppp                                           ",
"                                            9ttp        9tptp9tppp9999tt        p9t9                                            ",
"                                            9t999       pp9ttt99t9ptptpp       pptpp                                            ",
"                                            9ppt9        tpp9ppttp9tp9p        99tp9                                            ",
"                                             ttpp        pp99ttp99pt9pt        pt9p                                             ",
"                                             p99pp        ptpp99ptp9tp        9pp9t                                             ",
"                                             pptpt        ppt9pttpt9pp        ptpt                                              ",
"                                              9tp9p        9tp9t99tpp        9tppp                                              ",
"                                              9pt9p         t9ppptpp        pppt9                                               ",
"                                               pp9t9        ppt9p9p9        pt9tp                                               ",
"                                               ppt9t9        ppptpt        ttt9p                                                ",
"                                                9tppp          p9         999pp7                                                ",
"                                                 pp9pp                    ptppp                                                 ",
"                                                 ppttp9                  ppptp                                                  ",
"                                                  9t9ppt                99tp9t                                                  ",
"                                                   p9t9t               ptp9p9                                                   ",
"                                                   ppp9pp             pt99pt                                                    ",
"                                                    9ttppp           9pppt99                                                    ",
"                                                     pp9ptp         pt9tppp                                                     ",
"                                                      ptp9pp       p9tpptp                                                      ",
"                                                       ptpt9t      pptt9p                                                       ",
"                                                        99tppp    tpp9pp                                                        ",
"                                                         p9ppw    pttt9                                                         ",
"                                                         p9tpp    pp9pp                                                         ",
"                                                         ppt9p    9t9tp                                                         ",
"                                                         ppppw    ppppp                                                         ",
"                                                         ptptw    t9t9p                                                         ",
"                                                         p999w    p9tpp                                                         ",
"                                                         pptpw    pppt9                                                         ",
"                                                         ppppp    tp9tp                                                         ",
"                                                         p9tpw    9p9pp                                                         ",
"                                                         ppppw    9ttpp                                                         ",
"                                                         ppppw    t9ppt                                                         ",
"                                                         ptppw    p9t9p                                                         ",
"                                                         p9ppw    pttpp                                                         ",
"                                                         p9tpp    pp9pp                                                         ",
"                                                         pt9pt    p9ppt                                                         ",
"                                                         pp9p9    ttt9p                                                         ",
"                                                         ppttw    9ptpp                                                         ",
"                                                         ppp9w    tp9pp                                                         ",
"                                                         p9tpp    pppt9                                                         ",
"                                                         7ppp9    tp9tp                                                         ",
"                                                          ppt     9p9pp                                                         ",
"                                                           p      9ttpp                                                         ",
"                                                                  t9ptp                                                         ",
"                                                                  p9p9p                                                         ",
"                                                                  pttt9                                                         ",
"                                                                  pp9pp                                                         ",
"                                                                  9t9tp                                                         ",
"                                                                  ppppp                                                         ",
"                                                                  9pt9                                                          ",
"                                                                   9tp                                                          ",
"                                                                    9                                                           ",
"                                                                                                                                ",
"                                                                                                                                ",
"                                                                                                                                "
};
